# xmcd CD database file
#
# Track frame offsets:
#	150
#	19282
#	39704
#	49439
#	67821
#	86293
#	106468
#	123658
#	139865
#
# Disc length: 2229 seconds
#
# Revision: 0
# Processed by: cddbd v1.5.2PL0 Copyright (c) Steve Scherf et al.
# Submitted via: CDex 1.51
#
DISCID=7d08b309
DTITLE=Cledus Maggard and The Citizens Band - The White Knight
DYEAR=1976
DGENRE=Country
TTITLE0=Kentucky Moonrunner
TTITLE1=Mercy Day
TTITLE2=Dad I Gotta Go
TTITLE3=C.B. Rock
TTITLE4=The White Knight
TTITLE5=Jaw Jackin'
TTITLE6=Who We Got On The Other End (You're The Only Friend I Got)
TTITLE7=Cledus's C.B. Lingo Dictionary
TTITLE8=C.B. '76'
EXTD=YEAR: 1976
EXTT0=
EXTT1=
EXTT2=
EXTT3=
EXTT4=
EXTT5=
EXTT6=
EXTT7=
EXTT8=
PLAYORDER=
